inDegrees=no
num_controls=7
num_derivatives=13
num_iterations=88
num_multipliers=7
num_parameters=0
num_slacks=7
num_states=26
objective=0.454566
objective_accelerations=0.044572
objective_balance=0.000792
objective_effort=0.036412
objective_height=0.366687
objective_ligament=0.006104
solver_duration=1004.102392
status=Solve_Succeeded
success=true
DataType=double
version=3
OpenSimVersion=4.5
endheader
time	/jointset/ground_pelvis/pelvis_tilt/value	/jointset/ground_pelvis/pelvis_tx/value	/jointset/ground_pelvis/pelvis_ty/value	/jointset/hip_r/hip_flexion_r/value	/jointset/hip_r/hip_adduction_r/value	/jointset/hip_r/hip_rotation_r/value	/jointset/back/lumbar_extension/value	/jointset/patellofemoral_r/patellar_flexion_r/value	/jointset/knee_r/knee_flexion_r/value	/jointset/knee_r/knee_adduction_r/value	/jointset/knee_r/knee_rotation_r/value	/jointset/ankle_r/ankle_angle_r/value	/jointset/subtalar_r/subtalar_angle_r/value	/jointset/ground_pelvis/pelvis_tilt/speed	/jointset/ground_pelvis/pelvis_tx/speed	/jointset/ground_pelvis/pelvis_ty/speed	/jointset/hip_r/hip_flexion_r/speed	/jointset/hip_r/hip_adduction_r/speed	/jointset/hip_r/hip_rotation_r/speed	/jointset/back/lumbar_extension/speed	/jointset/patellofemoral_r/patellar_flexion_r/speed	/jointset/knee_r/knee_flexion_r/speed	/jointset/knee_r/knee_adduction_r/speed	/jointset/knee_r/knee_rotation_r/speed	/jointset/ankle_r/ankle_angle_r/speed	/jointset/subtalar_r/subtalar_angle_r/speed	/forceset/tau_hip_flexion_r	/forceset/tau_hip_adduction_r	/forceset/tau_hip_rotation_r	/forceset/tau_knee_flexion_r	/forceset/tau_ankle_angle_r	/forceset/tau_subtalar_angle_r	/forceset/tau_lumbar_extension	lambda_cid13_p0	lambda_cid14_p0	lambda_cid14_p1	lambda_cid14_p2	lambda_cid14_p3	lambda_cid14_p4	lambda_cid14_p5	/jointset/ground_pelvis/pelvis_tilt/accel	/jointset/ground_pelvis/pelvis_tx/accel	/jointset/ground_pelvis/pelvis_ty/accel	/jointset/hip_r/hip_flexion_r/accel	/jointset/hip_r/hip_adduction_r/accel	/jointset/hip_r/hip_rotation_r/accel	/jointset/back/lumbar_extension/accel	/jointset/patellofemoral_r/patellar_flexion_r/accel	/jointset/knee_r/knee_flexion_r/accel	/jointset/knee_r/knee_adduction_r/accel	/jointset/knee_r/knee_rotation_r/accel	/jointset/ankle_r/ankle_angle_r/accel	/jointset/subtalar_r/subtalar_angle_r/accel	gamma_cid13_p0	gamma_cid14_p0	gamma_cid14_p1	gamma_cid14_p2	gamma_cid14_p3	gamma_cid14_p4	gamma_cid14_p5
1.5	-0.06548072766881424	0.04149415776944883	0.8245283740302606	0.7631079141591058	-0.2524253938456131	-0.06018324421866962	-0.6222492546533057	0.9226677009812371	0.9226677009812375	0.06537410324101882	0.1742388361372471	0.2997228524845195	0.09381841571299197	0.4153617265344282	0.206420066837133	0.4682342833032616	-1.879765938347179	0.03913114319956564	-0.5018279081753712	0.7955332100532844	-1.90584933634049	-1.905849336340501	0.09818265124485269	0.003026429331443803	-0.5203460173920879	-0.1099139665950399	-0.1476661064121481	-0.003479669129471706	0.03534267189286427	-0.3111552163678438	0.01194907786723522	-0.01539217597957456	0.2059016587547305	-9.64500692434699	-39.1328523757475	-12.40280688293926	1.104100390332483	-2.557259651088356	-634.7712826159841	61.20316989533974	0.03617672728682128	0.5131796666993648	-0.4362633796370655	-0.9265464163383179	0.2029879880065853	-0.1571046466746681	1.730251481382777	-1.411648462381445	-1.411648462381449	0.4954270759000848	-0.01779330949797784	-0.5698389199347142	0.1916711596567374	8.455856181018278e-08	-3.515545168430996e-09	-1.451513633694216e-06	1.704846764987174e-07	1.506035074176978e-07	1.572377639749048e-07	-9.722095734616754e-07
1.51	-0.06132560291817626	0.04358384045555724	0.8291879671906981	0.7442658476804326	-0.2520245021189546	-0.06520942113521387	-0.6142086212673594	0.9035409798317828	0.9035409798317823	0.06638150030396994	0.1742693693269557	0.294491487188658	0.0927281221684871	0.4156074264587316	0.2114957061610625	0.4635876518742474	-1.8884087525303	0.04103434208485432	-0.503345296726469	0.8124988480839708	-1.919235956423555	-1.919235956423551	0.1033314498477432	0.003074417396710155	-0.5258466455866044	-0.1081441031669757	-0.141052414100534	-0.005002817605161218	0.03459549610912374	-0.3072571200528144	0.01379718190811005	-0.01576599313728705	0.1997730229368959	-10.65833888300517	-38.28066675350519	-12.28156739335389	0.9312811397240505	-2.732528364134267	-630.4466764153557	61.0667466323719	0.01039793443812983	0.5016614407383183	-0.4933364076416619	-0.7973562604781014	0.1820268346593344	-0.1396021378377174	1.665527106117304	-1.263345563436632	-1.263345563434453	0.5296610727624886	0.0152589141260012	-0.5280849809844849	0.169606715575236	8.600886745782284e-08	1.303995571673304e-08	-1.211761418304571e-06	2.694834815238213e-07	1.172349400917121e-07	1.562670343587233e-07	-8.145931414419511e-07
1.52	-0.0571696949064083	0.04572366061000462	0.8337981993602239	0.7253445115916922	-0.2516049702042697	-0.07024888117297054	-0.6060011700726651	0.8842881571250636	0.884288157125064	0.06744139631700791	0.1743002152072334	0.2892075335684964	0.09165551981450162	0.4155183787604768	0.2164475605049255	0.4583620851209082	-1.895619860360585	0.04285918080491519	-0.5044845324179814	0.8288967718028879	-1.931069647793323	-1.931069647793305	0.1086824412617915	0.003088967445458838	-0.5308636822520957	-0.1063757284911526	-0.1344387217889193	-0.006525966080848245	0.03384832032537489	-0.3033590237377849	0.01564528594898582	-0.01613981029499525	0.1936443871190615	-11.67416721801737	-37.43093732934329	-12.15916982358574	0.7564627942321956	-2.915732967907036	-626.1536239331234	60.96781290269718	-0.03077279722482244	0.4884226706860634	-0.5520504445020548	-0.6402051457710404	0.1873159549610272	-0.08147407475754445	1.616708619028909	-1.101062719721932	-1.101062719721921	0.5358656381316538	-0.02448091280152088	-0.473120614129681	0.1913734092085186	9.099892891139885e-08	2.627157105157339e-08	-1.086672458311232e-06	3.559537307038343e-07	9.727325195050559e-08	1.620111472829119e-07	-7.364978540647031e-07
1.53	-0.05301638285546349	0.04791231933136183	0.8383533301600369	0.7063583000918643	-0.2511676166309896	-0.07529772461498571	-0.5976326915577848	0.864924841900865	0.8649248419008654	0.06855591723326943	0.1743309259344211	0.2838758444260852	0.09060055199330051	0.4150854811245347	0.2212569471905459	0.4525723222308108	-1.901373107805067	0.04459926030863211	-0.505224569876409	0.8446911250774407	-1.941323305824517	-1.941323305824521	0.1142440589023353	0.003041216258583939	-0.5353893444004914	-0.1046148830776082	-0.1277873820242179	-0.008138028255915121	0.03308205620608728	-0.299557438522443	0.01747029684047748	-0.01654635519693366	0.1874687056068468	-12.68946852459579	-36.60326304778274	-12.05666233152955	0.586888842162484	-3.045457602356628	-622.0165233036605	60.8723922422416	-0.05832789629012981	0.4731288802755935	-0.6061657460141021	-0.5054802540645539	0.1655005179589396	-0.06118621051168861	1.544627767312218	-0.9470245485154459	-0.947024548518784	0.5695120176944152	0.003347139382155902	-0.4295386252714325	0.1687683568471285	9.974998090878174e-08	3.597155798919485e-08	-1.083413207176466e-06	4.291123892984385e-07	9.155637294312665e-08	1.748897804062437e-07	-7.428937828700852e-07
1.54	-0.04886915571078059	0.05014825836213031	0.8428478180239988	0.6873220369755357	-0.250713232948696	-0.08035215195741001	-0.5891095036930301	0.8454670886556148	0.8454670886556157	0.06972669476407439	0.1743608130219413	0.2785014487401745	0.08956325827611877	0.4143013975081448	0.2259036223871796	0.4462334979506904	-1.905630183660665	0.04626520260762487	-0.5056013124998902	0.8598386417777455	-1.949957252003605	-1.949957252003631	0.1199337641700251	0.002924239512214358	-0.5394049909519635	-0.1028409076872747	-0.1211360422595158	-0.009750090430979973	0.03231579208679178	-0.2957558533071009	0.01929530773196994	-0.0169529000988686	0.1812930240946325	-13.70022480420533	-35.7783842680987	-11.95303386882977	0.415296045691067	-3.182196436830829	-617.9163652550433	60.81873515215536	-0.1010099933143521	0.4558803728887392	-0.6618627225066533	-0.3409708279945889	0.1724885140161976	-0.008815107768290623	1.487341304179334	-0.777120349300773	-0.7771203493007719	0.5614831635608368	-0.03832602470046806	-0.3711174947449596	0.1939994045663382	1.086519709004393e-07	4.664750824335261e-08	-1.08672354451131e-06	5.038995541046875e-07	8.539899944909507e-08	1.923504850778059e-07	-7.572448546422069e-07
